<svg width="270" height="192" xmlns="http://www.w3.org/2000/svg"><defs><radialGradient cx="16.865%" cy="90.942%" fx="16.865%" fy="90.942%" r="28.767%" gradientTransform="matrix(.40972 -.7345 .72451 1.10863 -.56 .025)" id="a"><stop offset="0%"/><stop stop-opacity=".344" offset="35.753%"/><stop stop-opacity="0" offset="99.937%"/></radialGradient><radialGradient cx="16.865%" cy="90.942%" fx="16.865%" fy="90.942%" r="81.842%" gradientTransform="matrix(.28198 -.88424 .8722 .76299 -.672 .365)" id="b"><stop stop-opacity=".626" offset="0%"/><stop stop-opacity="0" offset="100%"/></radialGradient><filter x="-15.1%" y="-25%" width="130.2%" height="150%" filterUnits="objectBoundingBox" id="c"><feGaussianBlur stdDeviation="8" in="SourceGraphic"/></filter></defs><g fill="none" fill-rule="evenodd"><path d="M172.073 84c47.95 0 70.641 13.484 50.68 30.118C198.658 134.196 153.13 156.157 95.85 180c-19.418-23.843-30.072-45.804-22.283-65.882l.244-.593C81.013 97.165 124.693 84 172.073 84z" fill="url(#a)" opacity=".391"/><path d="M172.073 84c47.95 0 70.641 13.484 50.68 30.118C198.658 134.196 153.13 156.157 95.85 180c-19.418-23.843-30.072-45.804-22.283-65.882l.244-.593C81.013 97.165 124.693 84 172.073 84z" fill="url(#b)" filter="url(#c)"/></g></svg>