<svg width="210" height="53" xmlns="http://www.w3.org/2000/svg"><path d="M9.4 29.18h5.41L12.1 14.42 9.4 29.18zM3 40.66L9.91 8h4.35l6.92 32.66h-4.3l-1.48-8.23H8.82l-1.54 8.23H3zm27.63-3.07c.83 0 1.7-.29 2.61-.87V21.44a4.62 4.62 0 0 0-2.7-1.03c-1.67 0-2.51 1.62-2.51 4.87v6.6c0 .73.02 1.36.05 1.87.03.51.1 1.03.2 1.55.1.51.25.93.43 1.24a2.17 2.17 0 0 0 1.92 1.05zM29.55 41c-2 .01-3.47-.72-4.4-2.19-.93-1.47-1.4-3.9-1.4-7.3v-4.54c0-1.15.05-2.18.13-3.1.09-.9.26-1.8.5-2.68a7.5 7.5 0 0 1 1-2.2c.4-.6.94-1.06 1.62-1.43a5.04 5.04 0 0 1 2.4-.54c1.39 0 2.67.6 3.84 1.82V8h4.28v32.66h-4.28v-1.5A4.95 4.95 0 0 1 29.55 41zm12.4-.34V17.34h3.94v2.2a7.11 7.11 0 0 1 5.45-2.62c1.95 0 3.2.99 3.75 2.96 1.61-1.97 3.53-2.96 5.76-2.96 1.2 0 2.2.45 2.96 1.34.76.9 1.14 2.26 1.14 4.1v18.3H61V22.62c0-1.07-.18-1.81-.52-2.24a1.74 1.74 0 0 0-1.48-.62c-1.2 0-2.4.63-3.6 1.9v.22l.01.3v18.48H51.5V22.62c0-1.07-.17-1.81-.52-2.24a1.74 1.74 0 0 0-1.47-.62c-1.19 0-2.4.64-3.62 1.91v19h-3.94zM69.5 13.9V9.36h4.3v4.53h-4.3zm0 26.77V17.34h4.27v23.32H69.5zm8.96 0V17.34h4.28v2.3c1.82-1.74 3.7-2.62 5.64-2.62.65 0 1.21.14 1.69.42.47.27.83.65 1.08 1.13.25.48.42.98.53 1.5.1.53.16 1.1.16 1.72v18.87h-4.28v-17.6c0-.9-.13-1.56-.4-2-.25-.43-.73-.65-1.44-.65-.85 0-1.85.48-2.98 1.44v18.81h-4.28zM96.41 13.9V9.36h4.3v4.53h-4.3zm0 26.77V17.34h4.27v23.32h-4.27zm14.3.34c-1.87 0-3.38-.6-4.53-1.78a7.53 7.53 0 0 1-1.98-4.78l3.57-1.08c.17 1.5.5 2.63 1 3.35.49.73 1.2 1.1 2.12 1.1.77 0 1.4-.25 1.88-.76.48-.5.7-1.15.66-1.92-.06-1.16-.69-2.25-1.87-3.27l-3.95-3.41a9.54 9.54 0 0 1-2.14-2.51 6.1 6.1 0 0 1-.7-3.18c.05-1.83.6-3.24 1.65-4.24 1.06-1 2.5-1.5 4.32-1.5 1.74 0 3.12.58 4.13 1.73 1 1.15 1.59 2.61 1.74 4.4l-2.89 1.08a7.62 7.62 0 0 0-.9-3 2.13 2.13 0 0 0-1.93-1.03 2.2 2.2 0 0 0-1.68.68 2.32 2.32 0 0 0-.62 1.7c0 .9.38 1.68 1.15 2.36l4.1 3.79c1.03.9 1.83 1.84 2.41 2.81.58.97.87 2.14.87 3.49 0 1.94-.57 3.42-1.73 4.44-1.15 1.02-2.7 1.53-4.67 1.53zm15.84 0c-1.75 0-3.02-.47-3.8-1.4-.77-.93-1.17-2.32-1.2-4.18v-15.2h-2.42v-2.88h2.42v-6.8h4.28v6.8h3.71v2.87h-3.71v14.92c0 .93.15 1.59.44 1.97.3.38.85.57 1.67.57.61 0 1.14-.03 1.58-.1v3.2c-1.25.15-2.24.23-2.97.23zm6.37-.34V17.34h4.27v3.33a8.3 8.3 0 0 1 2.45-2.82 4.85 4.85 0 0 1 3.37-.77v4.77c-.8-.3-1.57-.45-2.34-.45-.72 0-1.34.16-1.88.48a5.1 5.1 0 0 0-1.6 1.74v17.04h-4.27zm18.66-3.4c.55 0 1.09-.22 1.62-.65a5.4 5.4 0 0 0 1.18-1.28v-6.6l-.58.33c-1.18.68-1.97 1.2-2.4 1.56a4.59 4.59 0 0 0-1.87 3.64c0 .95.18 1.68.53 2.2.35.53.86.8 1.52.8zm-1.7 3.74a4.1 4.1 0 0 1-3.3-1.65 5.81 5.81 0 0 1-1.34-3.77c0-1.1.18-2.1.54-3 .35-.9.74-1.63 1.14-2.18.4-.55 1.1-1.13 2.1-1.72.9-.54 1.6-.94 2.14-1.2l.43-.2a120.77 120.77 0 0 1 2.79-1.17v-1.68c0-1.51-.16-2.58-.46-3.22-.3-.64-.93-.96-1.87-.96-1.61 0-2.42 1.1-2.42 3.31v1.17l-4.23-.16v-.31l.02-.36.02-.2c.13-2.32.77-4.02 1.93-5.08 1.16-1.06 2.82-1.6 4.98-1.6 2.22 0 3.83.62 4.82 1.85.99 1.22 1.48 3.07 1.48 5.54v10.66c0 1.76.13 3.62.4 5.6h-3.91c-.28-1.3-.46-2.45-.57-3.45a6.05 6.05 0 0 1-1.67 2.68c-.78.73-1.79 1.1-3.01 1.1zm13-.34V17.34h4.27v2.3c1.82-1.74 3.7-2.62 5.64-2.62.65 0 1.21.14 1.69.42.47.27.83.65 1.08 1.13.25.48.42.98.53 1.5.1.53.15 1.1.15 1.72v18.87h-4.27v-17.6c0-.9-.13-1.56-.4-2-.25-.43-.73-.65-1.44-.65-.86 0-1.85.48-2.98 1.44v18.81h-4.28zm23.81.34c-1.76 0-3.02-.47-3.8-1.4-.77-.93-1.17-2.32-1.2-4.18v-15.2h-2.42v-2.88h2.42v-6.8h4.28v6.8h3.7v2.87h-3.7v14.92c0 .93.14 1.59.44 1.97.29.38.85.57 1.67.57.6 0 1.14-.03 1.58-.1v3.2c-1.25.15-2.24.23-2.97.23zm12.57-23.98c2.44 0 4.17.74 5.2 2.21 1.03 1.47 1.54 3.6 1.54 6.4v6.76c0 2.8-.51 4.93-1.54 6.4-1.03 1.47-2.76 2.2-5.2 2.2-1.26 0-2.33-.19-3.2-.58a4.75 4.75 0 0 1-2.09-1.75 8.08 8.08 0 0 1-1.1-2.7 16.53 16.53 0 0 1-.34-3.57v-6.76c0-1.36.11-2.56.34-3.57.23-1.02.6-1.92 1.1-2.7.51-.77 1.2-1.35 2.08-1.75.88-.39 1.95-.59 3.21-.59zm0 3.18a2.33 2.33 0 0 0-1.56.55c-.17.14-.31.36-.44.67-.12.3-.21.56-.27.8-.06.22-.1.56-.13.99v.2l-.05.82v9.69l.05.9.02.2a4.9 4.9 0 0 0 .38 1.58c.13.3.27.52.44.67a2.46 2.46 0 0 0 1.56.54c.4 0 .74-.06 1.03-.18.3-.12.52-.31.7-.59a4.09 4.09 0 0 0 .63-1.9l.06-.84.02-.32V24.1l-.03-.49-.02-.4a5.66 5.66 0 0 0-.4-1.8 1.6 1.6 0 0 0-.43-.66 2.7 2.7 0 0 0-.66-.39 2.26 2.26 0 0 0-.9-.16z" fill="#363636" fill-rule="nonzero"/></svg>
