<?xml version="1.0" encoding="UTF-8"?>
<svg width="300px" height="64px" viewBox="0 0 300 64" version="1.1" xmlns="http://www.w3.org/2000/svg" xmlns:xlink="http://www.w3.org/1999/xlink">
    <!-- Generator: Sketch 61.2 (89653) - https://sketch.com -->
    <title>logo-label-med</title>
    <desc>Created with Sketch.</desc>
    <g id="logo-label-med" stroke="none" stroke-width="1" fill="none" fill-rule="evenodd">
        <path d="M8.77197266,59 L11.5200195,44.5073242 L24.4750977,44.5073242 L27.1577148,59 L32.1630859,59 L20.6474609,4.75878906 L15.2822266,4.75878906 L3.83203125,59 L8.77197266,59 Z M23.7880859,40.777832 L12.2397461,40.777832 L17.9975586,11.5307617 L23.7880859,40.777832 Z M46.5095703,59 L46.5095703,38.8476562 L50.8933594,30.734375 L63.2268555,59 L68.2976563,59 L54.6882813,28.0517578 L65.9094727,4.75878906 L61.0022461,4.75878906 L46.5095703,33.3515625 L46.5095703,4.75878906 L41.3733398,4.75878906 L41.3733398,59 L46.5095703,59 Z M87.387793,59.6542969 C91.1390951,59.6542969 94.1543132,58.585612 96.4334473,56.4482422 C98.7125814,54.3108724 99.8521484,51.2683919 99.8521484,47.3208008 C99.8521484,44.5073242 99.1433268,41.8955892 97.7256836,39.4855957 C96.3080404,37.0756022 94.3669596,34.6928711 91.9024414,32.3374023 L91.9024414,32.3374023 L82.349707,23.2753906 C80.9538737,21.9231771 79.9669759,20.6418457 79.3890137,19.4313965 C78.8110514,18.2209473 78.5220703,16.8741862 78.5220703,15.3911133 C78.5220703,13.0138346 79.2036296,11.2363281 80.566748,10.0585938 C81.9298665,8.88085938 83.8000651,8.25927734 86.1773438,8.19384766 L86.1773438,8.19384766 L86.5699219,8.19384766 C89.274349,8.19384766 91.2372396,9.06624349 92.4585938,10.8110352 C93.7235677,12.6430664 94.508724,15.3911133 94.8140625,19.0551758 L94.8140625,19.0551758 L99.1324219,17.9428711 C98.7834635,13.0792643 97.5402995,9.55696615 95.4029297,7.37597656 C93.3091797,5.23860677 90.2885091,4.16992188 86.340918,4.16992188 L86.340918,4.16992188 L86.1119141,4.16992188 C82.360612,4.19173177 79.3890137,5.21679688 77.1971191,7.24511719 C75.0052246,9.2734375 73.9092773,12.1305339 73.9092773,15.8164062 C73.9092773,19.9602865 75.5450195,23.6025391 78.8165039,26.7431641 L78.8165039,26.7431641 L88.434668,35.96875 C89.5687826,37.0810547 90.4902507,38.0297852 91.1990723,38.8149414 C91.9078939,39.6000977 92.5840007,40.477946 93.2273926,41.4484863 C93.8707845,42.4190267 94.3396973,43.411377 94.6341309,44.4255371 C94.9285645,45.4396973 95.0757813,46.5247396 95.0757813,47.6806641 C95.0757813,52.9150391 92.5240234,55.5322266 87.4205078,55.5322266 C86.133724,55.5322266 84.9941569,55.3250326 84.0018066,54.9106445 C83.0094564,54.4962565 82.1915853,53.9510091 81.5481934,53.2749023 C80.9048014,52.5987956 80.359554,51.7318522 79.9124512,50.6740723 C79.4653483,49.6162923 79.1272949,48.5367025 78.898291,47.4353027 C78.6692871,46.333903 78.4784505,45.0634766 78.3257813,43.6240234 L78.3257813,43.6240234 L73.778418,44.9326172 C74.1273763,49.578125 75.4087077,53.1931152 77.6224121,55.7775879 C79.8361165,58.3620605 83.0912435,59.6542969 87.387793,59.6542969 Z M122.14834,59.6870117 C124.24209,59.6870117 126.095931,59.4198405 127.709863,58.885498 C129.323796,58.3511556 130.654199,57.6096191 131.701074,56.6608887 C132.747949,55.7121582 133.603988,54.5289714 134.269189,53.1113281 C134.934391,51.6936849 135.403304,50.1669922 135.675928,48.53125 C135.948551,46.8955078 136.084863,45.0634766 136.084863,43.0351562 L136.084863,43.0351562 L136.084863,20.4619141 C136.084863,17.9319661 135.850407,15.7073568 135.381494,13.7880859 C134.912581,11.8688151 134.149235,10.1676432 133.091455,8.68457031 C132.033675,7.2014974 130.58877,6.07828776 128.756738,5.31494141 C126.924707,4.55159505 124.721908,4.16992188 122.14834,4.16992188 C119.574772,4.16992188 117.371973,4.55159505 115.539941,5.31494141 C113.70791,6.07828776 112.263005,7.19604492 111.205225,8.66821289 C110.147445,10.1403809 109.384098,11.8361003 108.915186,13.7553711 C108.446273,15.6746419 108.211816,17.9101562 108.211816,20.4619141 L108.211816,20.4619141 L108.211816,42.9697266 C108.211816,45.5432943 108.44082,47.806071 108.898828,49.7580566 C109.356836,51.7100423 110.103825,53.454834 111.139795,54.9924316 C112.175765,56.5300293 113.615218,57.6968587 115.458154,58.4929199 C117.30109,59.2889811 119.531152,59.6870117 122.14834,59.6870117 Z M122.14834,55.5649414 C120.403548,55.5649414 118.942285,55.3032227 117.764551,54.7797852 C116.586816,54.2345378 115.687158,53.4275716 115.065576,52.3588867 C114.443994,51.2902018 114.007796,50.1015625 113.756982,48.7929688 C113.506169,47.484375 113.380762,45.9140625 113.380762,44.0820312 L113.380762,44.0820312 L113.380762,19.5458984 C113.380762,17.7138672 113.506169,16.1490072 113.756982,14.8513184 C114.007796,13.5536296 114.443994,12.3813477 115.065576,11.3344727 C115.687158,10.2875977 116.586816,9.50789388 117.764551,8.99536133 C118.942285,8.48282878 120.403548,8.2265625 122.14834,8.2265625 C123.893132,8.2265625 125.354395,8.48282878 126.532129,8.99536133 C127.709863,9.50789388 128.609521,10.2875977 129.231104,11.3344727 C129.852686,12.3813477 130.288883,13.5536296 130.539697,14.8513184 C130.790511,16.1490072 130.915918,17.7138672 130.915918,19.5458984 L130.915918,19.5458984 L130.915918,44.0820312 C130.915918,45.9140625 130.790511,47.484375 130.539697,48.7929688 C130.288883,50.1015625 129.852686,51.2902018 129.231104,52.3588867 C128.609521,53.4275716 127.709863,54.2290853 126.532129,54.7634277 C125.354395,55.2977702 123.893132,55.5649414 122.14834,55.5649414 Z M166.527051,59.621582 C168.468132,59.621582 170.142041,59.0490723 171.548779,57.9040527 C172.955518,56.7590332 173.95332,55.3359375 174.542188,53.6347656 L174.542188,53.6347656 L175.261914,59 L179.612988,59 C179.373079,56.9934896 179.253125,54.4308268 179.253125,51.3120117 L179.253125,51.3120117 L179.253125,32.4682617 C179.253125,27.9972331 178.533398,24.7475586 177.093945,22.7192383 C175.654492,20.690918 173.222689,19.6767578 169.798535,19.6767578 C166.483431,19.6767578 163.953483,20.5000814 162.208691,22.1467285 C160.4639,23.7933757 159.515169,26.4378255 159.3625,30.0800781 C159.34069,30.2327474 159.329785,30.6253255 159.329785,31.2578125 L159.329785,31.2578125 L164.171582,31.4213867 L164.171582,30.0146484 C164.171582,25.5872396 165.959993,23.3735352 169.536816,23.3735352 C171.390658,23.3735352 172.655632,24.0441895 173.331738,25.385498 C174.007845,26.7268066 174.345898,29.1749674 174.345898,32.7299805 L174.345898,32.7299805 L174.345898,35.5107422 C172.230339,36.4485677 170.518262,37.2446289 169.209668,37.8989258 C167.901074,38.5532227 166.59248,39.2674967 165.283887,40.041748 C163.975293,40.8159993 162.966585,41.5466309 162.257764,42.2336426 C161.548942,42.9206543 160.894645,43.711263 160.294873,44.6054688 C159.695101,45.4996745 159.286165,46.4538574 159.068066,47.4680176 C158.849967,48.4821777 158.740918,49.6326497 158.740918,50.9194336 C158.740918,53.3839518 159.471549,55.4504395 160.932813,57.1188965 C162.394076,58.7873535 164.258822,59.621582 166.527051,59.621582 Z M168.130078,55.4013672 C166.843294,55.4013672 165.774609,54.9379069 164.924023,54.0109863 C164.073438,53.0840658 163.648145,51.671875 163.648145,49.7744141 C163.648145,49.0983073 163.691764,48.4821777 163.779004,47.9260254 C163.866243,47.369873 164.029818,46.8409831 164.269727,46.3393555 C164.509635,45.8377279 164.744092,45.3960775 164.973096,45.0144043 C165.2021,44.6327311 165.572868,44.2237956 166.0854,43.7875977 C166.597933,43.3513997 167.050488,42.9806315 167.443066,42.675293 C167.835645,42.3699544 168.429964,41.9882812 169.226025,41.5302734 C170.022087,41.0722656 170.703646,40.6905924 171.270703,40.3852539 C171.83776,40.0799154 172.655632,39.6437174 173.724316,39.0766602 C174.007845,38.9239909 174.215039,38.8149414 174.345898,38.7495117 L174.345898,38.7495117 L174.345898,50.8212891 C173.713411,52.0644531 172.846468,53.1385905 171.745068,54.0437012 C170.643669,54.9488118 169.438672,55.4013672 168.130078,55.4013672 Z M195.054395,59.621582 C197.497103,59.5997721 199.699902,58.4765625 201.662793,56.2519531 L201.662793,56.2519531 L201.662793,59 L206.57002,59 L206.57002,4.75878906 L201.662793,4.75878906 L201.662793,23.0463867 C199.656283,20.8217773 197.377148,19.6985677 194.825391,19.6767578 C193.364128,19.6767578 192.099154,19.9330241 191.030469,20.4455566 C189.961784,20.9580892 189.089388,21.6614583 188.413281,22.5556641 C187.737174,23.4498698 187.191927,24.6057943 186.777539,26.0234375 C186.363151,27.4410807 186.079622,28.9568685 185.926953,30.5708008 C185.774284,32.1847331 185.697949,34.0603841 185.697949,36.1977539 L185.697949,36.1977539 L185.697949,43.3623047 C185.697949,49.1855469 186.423128,53.351237 187.873486,55.859375 C189.323844,58.367513 191.71748,59.621582 195.054395,59.621582 Z M196.03584,55.7285156 C193.89847,55.7285156 192.459017,54.7906901 191.71748,52.9150391 C190.975944,51.039388 190.605176,47.9860026 190.605176,43.7548828 L190.605176,43.7548828 L190.605176,34.6274414 C190.605176,30.7016602 190.970492,27.8718262 191.701123,26.1379395 C192.431755,24.4040527 193.83304,23.5371094 195.90498,23.5371094 C197.780632,23.5371094 199.699902,24.453125 201.662793,26.2851562 L201.662793,26.2851562 L201.662793,53.1767578 C199.808952,54.8779297 197.933301,55.7285156 196.03584,55.7285156 Z M218.674512,59 L218.674512,26.9394531 C221.02998,24.3004557 223.439974,22.9591471 225.904492,22.9155273 C227.125846,22.9155273 228.074577,23.3299154 228.750684,24.1586914 C229.42679,24.9874674 229.764844,26.4596354 229.764844,28.5751953 L229.764844,28.5751953 L229.764844,59 L234.344922,59 L234.344922,28.4443359 C234.344922,28.0953776 234.323112,27.59375 234.279492,26.9394531 C236.678581,24.3004557 239.110384,22.9591471 241.574902,22.9155273 C242.796257,22.9155273 243.734082,23.3299154 244.388379,24.1586914 C245.042676,24.9874674 245.369824,26.4596354 245.369824,28.5751953 L245.369824,28.5751953 L245.369824,59 L250.015332,59 L250.015332,28.4443359 C250.015332,25.3037109 249.399202,23.0409342 248.166943,21.6560059 C246.934684,20.2710775 245.358919,19.5786133 243.439648,19.5786133 C239.775586,19.5786133 236.591341,21.2797852 233.886914,24.6821289 C233.058138,21.2797852 231.029818,19.5786133 227.801953,19.5786133 C224.31237,19.5786133 221.269889,21.1162109 218.674512,24.1914062 L218.674512,24.1914062 L218.674512,20.265625 L214.061719,20.265625 L214.061719,59 L218.674512,59 Z M262.708691,14.9331055 L262.708691,8.25927734 L257.76875,8.25927734 L257.76875,14.9331055 L262.708691,14.9331055 Z M262.675977,59 L262.675977,20.265625 L257.76875,20.265625 L257.76875,59 L262.675977,59 Z M275.794629,59 L275.794629,27.1030273 C278.128288,24.7257487 280.352897,23.5371094 282.468457,23.5371094 C283.733431,23.5371094 284.665804,23.9514974 285.265576,24.7802734 C285.865348,25.6090495 286.165234,27.0048828 286.165234,28.9677734 L286.165234,28.9677734 L286.165234,59 L291.072461,59 L291.072461,27.9208984 C291.072461,25.281901 290.559928,23.2481283 289.534863,21.8195801 C288.509798,20.3910319 287.03763,19.6767578 285.118359,19.6767578 C281.759635,19.6767578 278.651725,21.2143555 275.794629,24.2895508 L275.794629,24.2895508 L275.794629,20.265625 L270.887402,20.265625 L270.887402,59 L275.794629,59 Z" id="AKSOadmin" fill="#FFFFFF" fill-rule="nonzero"></path>
    </g>
</svg>