<svg width="477" height="64" xmlns="http://www.w3.org/2000/svg"><path d="M3.832 59l11.45-54.241h5.365L32.163 59h-5.005l-2.683-14.493H11.52L8.772 59h-4.94zm8.408-18.222h11.548l-5.79-29.247-5.758 29.247zM41.373 59V4.759h5.137v28.593L61.002 4.759h4.907L54.69 28.052 68.297 59h-5.071L50.893 30.734l-4.383 8.114V59h-5.137zm46.015.654c-4.297 0-7.552-1.292-9.766-3.876-2.213-2.585-3.495-6.2-3.844-10.845l4.548-1.309c.152 1.44.343 2.71.572 3.811a17.4 17.4 0 0 0 1.014 3.24c.448 1.057.993 1.924 1.636 2.6.644.676 1.461 1.221 2.454 1.636.992.414 2.132.621 3.419.621 5.103 0 7.655-2.617 7.655-7.851 0-1.156-.147-2.241-.442-3.255a10.871 10.871 0 0 0-1.407-2.978 22.346 22.346 0 0 0-2.028-2.633l-.45-.49a76.102 76.102 0 0 0-2.314-2.356l-9.618-9.226c-3.272-3.14-4.908-6.783-4.908-10.927 0-3.685 1.096-6.543 3.288-8.57 2.192-2.03 5.164-3.054 8.915-3.076h.229c3.948 0 6.968 1.069 9.062 3.206 2.137 2.181 3.38 5.703 3.73 10.567l-4.319 1.112c-.305-3.664-1.09-6.412-2.355-8.244-1.222-1.745-3.185-2.617-5.89-2.617h-.392c-2.377.065-4.247.687-5.61 1.865-1.363 1.177-2.045 2.955-2.045 5.332 0 1.483.289 2.83.867 4.04.578 1.21 1.565 2.492 2.96 3.844l9.553 9.062c2.465 2.356 4.406 4.739 5.824 7.149 1.417 2.41 2.126 5.021 2.126 7.835 0 3.947-1.14 6.99-3.419 9.127-2.279 2.138-5.294 3.206-9.045 3.206zm30.377-4.874c1.177.523 2.639.785 4.383.785 1.745 0 3.206-.267 4.384-.802 1.178-.534 2.078-1.335 2.7-2.404.62-1.069 1.057-2.257 1.308-3.566.25-1.309.376-2.879.376-4.711V19.546c0-1.832-.125-3.397-.376-4.695-.251-1.297-.687-2.47-1.309-3.517-.621-1.046-1.521-1.826-2.699-2.339-1.178-.512-2.639-.768-4.384-.768-1.744 0-3.206.256-4.383.768-1.178.513-2.078 1.293-2.7 2.34-.621 1.046-1.057 2.219-1.308 3.516-.25 1.298-.376 2.863-.376 4.695v24.536c0 1.832.125 3.402.376 4.711.25 1.309.687 2.497 1.309 3.566.621 1.069 1.52 1.876 2.699 2.42zm4.383 4.907c-2.617 0-4.847-.398-6.69-1.194-1.843-.796-3.282-1.963-4.318-3.5-1.036-1.538-1.783-3.283-2.241-5.235-.458-1.952-.687-4.215-.687-6.788V20.462c0-2.552.234-4.787.703-6.707.47-1.919 1.232-3.615 2.29-5.087 1.058-1.472 2.503-2.59 4.335-3.353 1.832-.763 4.035-1.145 6.608-1.145 2.574 0 4.777.382 6.609 1.145 1.832.763 3.277 1.886 4.334 3.37 1.058 1.483 1.822 3.184 2.29 5.103.47 1.92.704 4.144.704 6.674v22.573c0 2.028-.136 3.86-.41 5.496a17.497 17.497 0 0 1-1.406 4.58c-.665 1.418-1.521 2.601-2.568 3.55-1.047.949-2.377 1.69-3.991 2.224-1.614.535-3.468.802-5.562.802zM157.923 59l11.45-54.241h5.365L186.254 59h-5.005l-2.683-14.493h-12.955L162.863 59h-4.94zm8.408-18.222h11.548l-5.79-29.247-5.758 29.247zm34.089 18.844c-3.337 0-5.73-1.254-7.181-3.763-1.45-2.508-2.176-6.673-2.176-12.497v-7.164c0-2.138.077-4.013.23-5.627a24.36 24.36 0 0 1 .85-4.548c.414-1.417.96-2.573 1.636-3.467.676-.895 1.548-1.598 2.617-2.11 1.068-.513 2.333-.77 3.795-.77 2.551.023 4.83 1.146 6.837 3.37V4.76h4.907V59h-4.907v-2.748c-1.963 2.225-4.166 3.348-6.608 3.37zm.981-3.893c1.898 0 3.773-.851 5.627-2.552V26.285c-1.963-1.832-3.882-2.748-5.758-2.748-2.072 0-3.473.867-4.204 2.6-.73 1.735-1.096 4.565-1.096 8.49v9.128l.007.955c.053 3.739.421 6.474 1.106 8.205.741 1.876 2.18 2.814 4.318 2.814zM219.427 59V20.266h4.613v3.925c2.595-3.075 5.638-4.612 9.127-4.612 3.228 0 5.256 1.7 6.085 5.103 2.705-3.402 5.889-5.103 9.553-5.103 1.92 0 3.495.692 4.727 2.077 1.232 1.385 1.849 3.648 1.849 6.788V59h-4.646V28.575c0-2.115-.327-3.588-.981-4.416-.655-.83-1.593-1.243-2.814-1.243-2.464.043-4.896 1.384-7.295 4.023l.028.463c.025.433.037.78.037 1.042V59h-4.58V28.575c0-2.115-.338-3.588-1.014-4.416-.676-.83-1.625-1.243-2.846-1.243-2.465.043-4.875 1.384-7.23 4.023V59h-4.613zm43.707 0V20.266h4.907V59h-4.907zm0-44.067V8.26h4.94v6.674h-4.94zM276.253 59V20.266h4.907v4.024c2.857-3.076 5.965-4.613 9.324-4.613 1.919 0 3.391.714 4.416 2.143 1.025 1.428 1.538 3.462 1.538 6.1V59h-4.908V28.968c0-1.963-.3-3.359-.9-4.188-.599-.829-1.531-1.243-2.796-1.243-2.116 0-4.34 1.189-6.674 3.566V59h-4.907zm27.97 0V20.266h4.908V59h-4.907zm0-44.067V8.26h4.94v6.674h-4.94zm21.985 44.689c-3.075 0-5.534-.993-7.377-2.977-1.843-1.985-2.895-4.668-3.157-8.048l4.122-1.243c.262 2.944.938 5.108 2.028 6.493 1.09 1.385 2.618 2.078 4.58 2.078 1.702 0 3.043-.502 4.024-1.505.938-.96 1.407-2.246 1.407-3.86v-.23c-.063-2.484-1.53-4.97-4.398-7.454l-5.58-4.748c-1.854-1.549-3.206-3.064-4.057-4.547-.828-1.44-1.243-3.12-1.243-5.039 0-2.835.85-5.027 2.552-6.575 1.658-1.527 3.893-2.29 6.707-2.29 2.857 0 5.054.916 6.592 2.748 1.537 1.832 2.393 4.307 2.568 7.426l-3.468 1.145c-.153-2.595-.682-4.52-1.587-5.774-.905-1.254-2.208-1.881-3.91-1.881-1.526 0-2.747.425-3.663 1.276-.894.828-1.341 1.94-1.341 3.337 0 1.265.229 2.35.687 3.255.458.905 1.297 1.88 2.519 2.928l5.463 4.907c.981.85 1.783 1.598 2.405 2.24.621.644 1.28 1.44 1.979 2.39a10.218 10.218 0 0 1 1.554 3.074c.338 1.102.518 2.285.54 3.55 0 2.966-.895 5.261-2.683 6.886-1.789 1.625-4.21 2.438-7.263 2.438zm24.634-.131c-2.639 0-4.46-.725-5.463-2.176-1.003-1.45-1.516-3.571-1.537-6.363V23.537h-4.679v-3.271h4.679V8.292h4.907v11.974h6.445v3.271h-6.445v26.957c0 1.963.229 3.31.687 4.04.458.731 1.385 1.096 2.78 1.096.895 0 1.81-.087 2.749-.261v3.696c-1.462.284-2.836.426-4.123.426zm9.946-.491V20.266h4.907v5.332c1.178-1.963 2.557-3.413 4.138-4.35 1.582-.939 3.18-1.408 4.793-1.408l.356.004c.214.005.378.015.495.029v5.3c-.698-.284-1.483-.425-2.356-.425-3.14 0-5.616 1.504-7.426 4.514V59h-4.907zm26.27.622c-2.268 0-4.133-.835-5.594-2.503-1.462-1.669-2.192-3.735-2.192-6.2 0-1.286.109-2.437.327-3.451a8.196 8.196 0 0 1 1.227-2.863c.6-.894 1.254-1.684 1.963-2.371.708-.687 1.717-1.418 3.026-2.192a63.341 63.341 0 0 1 3.925-2.143l.586-.29c1.22-.595 2.737-1.294 4.55-2.098V32.73c0-3.555-.337-6.003-1.013-7.345-.677-1.34-1.942-2.011-3.795-2.011-3.577 0-5.366 2.213-5.366 6.64v1.407l-4.841-.163.003-.553c.005-.315.015-.523.03-.625.152-3.642 1.1-6.287 2.845-7.933 1.745-1.647 4.275-2.47 7.59-2.47 3.424 0 5.856 1.014 7.296 3.042 1.44 2.029 2.159 5.278 2.159 9.75v18.843l.006 1.144c.026 2.607.144 4.788.354 6.544h-4.351l-.72-5.365a9.35 9.35 0 0 1-2.993 4.27c-1.407 1.144-3.081 1.717-5.022 1.717zm1.603-4.22c1.308 0 2.513-.453 3.615-1.358a10.01 10.01 0 0 0 2.6-3.223V38.75l-.193.099-2.882 1.536c-.486.262-1.056.58-1.71.954l-.334.191c-.796.458-1.39.84-1.783 1.145l-.413.327c-.288.233-.603.495-.945.786-.512.436-.883.845-1.112 1.226a16.05 16.05 0 0 0-.704 1.325 5.707 5.707 0 0 0-.49 1.587c-.087.556-.131 1.172-.131 1.848 0 1.898.425 3.31 1.276 4.237.85.927 1.92 1.39 3.206 1.39zM406.948 59V20.266h4.908v4.024c2.857-3.076 5.965-4.613 9.323-4.613 1.92 0 3.392.714 4.417 2.143 1.025 1.428 1.537 3.462 1.537 6.1V59h-4.907V28.968c0-1.963-.3-3.359-.9-4.188-.6-.829-1.532-1.243-2.797-1.243-2.115 0-4.34 1.189-6.673 3.566V59h-4.908zm36.608.49c-2.639 0-4.46-.724-5.463-2.175-1.003-1.45-1.516-3.571-1.538-6.363V23.537h-4.678v-3.271h4.678V8.292h4.908v11.974h6.444v3.271h-6.444v26.957c0 1.963.229 3.31.687 4.04.458.731 1.385 1.096 2.78 1.096.895 0 1.81-.087 2.748-.261v3.696c-1.46.284-2.835.426-4.122.426zm19.171-3.565c.982 0 1.81-.18 2.487-.54.676-.36 1.205-.812 1.586-1.358.382-.545.67-1.32.867-2.322.196-1.004.322-1.963.376-2.88l.03-.582c.03-.717.048-1.568.051-2.553l.001-11.684c0-1.461-.027-2.65-.082-3.566a21.746 21.746 0 0 0-.376-2.879c-.196-1.003-.485-1.777-.867-2.323-.381-.545-.91-.998-1.586-1.357-.677-.36-1.505-.54-2.487-.54-.829 0-1.548.109-2.159.327a3.312 3.312 0 0 0-1.505 1.063 6.85 6.85 0 0 0-.949 1.57c-.24.557-.42 1.282-.54 2.176-.12.894-.196 1.74-.228 2.535l-.02.561c-.02.689-.03 1.5-.03 2.433V45.26c0 1.2.017 2.197.05 2.993.032.796.109 1.641.229 2.536.12.894.3 1.619.54 2.175.24.556.556 1.08.948 1.57.393.491.894.846 1.505 1.064.61.218 1.33.327 2.16.327zm5.006 2.748c-1.353.632-3.021.949-5.006.949-1.984 0-3.653-.317-5.005-.95a7.213 7.213 0 0 1-3.19-2.878c-.774-1.287-1.325-2.797-1.652-4.531-.327-1.734-.49-3.822-.49-6.265v-10.73c0-4.93.763-8.594 2.29-10.993 1.526-2.399 4.209-3.598 8.047-3.598 3.86 0 6.549 1.194 8.064 3.582 1.516 2.388 2.274 6.058 2.274 11.009v10.73c0 2.443-.163 4.531-.49 6.265-.328 1.734-.878 3.244-1.653 4.53a7.213 7.213 0 0 1-3.19 2.88z" fill="#FFF" fill-rule="nonzero"/></svg>
