<svg width="140" height="64" xmlns="http://www.w3.org/2000/svg"><path d="M121.88 60c-2.32.06-4.63-.35-6.79-1.2a9.82 9.82 0 0 1-4.37-3.55 15.63 15.63 0 0 1-2.28-5.27c-.46-1.97-.7-4.25-.7-6.85v-22.7c0-2.57.24-4.82.72-6.76.43-1.84 1.21-3.59 2.3-5.13a10.06 10.06 0 0 1 4.41-3.38 17.57 17.57 0 0 1 6.7-1.15c2.61 0 4.85.4 6.7 1.15a9.97 9.97 0 0 1 4.4 3.4c1.1 1.55 1.9 3.3 2.33 5.15.47 1.93.7 4.18.7 6.72V43.2c0 2.04-.13 3.9-.41 5.54a17.5 17.5 0 0 1-1.42 4.62 11.14 11.14 0 0 1-2.6 3.59 11.2 11.2 0 0 1-4.05 2.23c-1.64.54-3.52.81-5.64.81zM86.1 8.05c-2.41.07-4.3.7-5.69 1.9-1.38 1.17-2.07 2.96-2.07 5.37 0 1.5.29 2.84.88 4.07a14.1 14.1 0 0 0 3 3.88l9.68 9.13a34.3 34.3 0 0 1 5.91 7.21 15.28 15.28 0 0 1 2.16 7.9c0 3.99-1.15 7.04-3.47 9.2-2.31 2.16-5.37 3.23-9.17 3.23-4.35 0-7.66-1.3-9.9-3.9-2.25-2.61-3.55-6.26-3.9-10.94l4.6-1.32c.17 1.45.36 2.73.59 3.84.23 1.12.58 2.2 1.03 3.27a7.12 7.12 0 0 0 4.15 4.27c1 .42 2.16.63 3.47.63 5.16 0 7.76-2.64 7.76-7.92.04-2.24-.62-4.43-1.88-6.29-.62-.93-1.3-1.82-2.06-2.65-.9-.98-1.84-1.94-2.8-2.87l-9.75-9.3c-3.32-3.17-4.98-6.85-4.98-11.02 0-3.72 1.1-6.6 3.34-8.65 2.22-2.04 5.24-3.08 9.03-3.08h.23c4.01 0 7.08 1.06 9.2 3.22 2.16 2.2 3.43 5.75 3.78 10.66l-4.38 1.12c-.31-3.69-1.1-6.47-2.39-8.32-1.24-1.75-3.23-2.64-5.97-2.64h-.4zM32.73 59.3h-5.07l-2.72-14.62H11.79L9.01 59.3H4L15.6 4.6h5.45l11.67 54.7h.01zm13.85 0h-5.2V4.6h5.2v28.83L61.28 4.6h4.97L54.87 28.08l13.8 31.22h-5.14L51.01 30.8l-4.43 8.17V59.3zm70.85-4.26c1.2.53 2.67.8 4.45.8 1.77 0 3.25-.28 4.44-.82a5.88 5.88 0 0 0 2.74-2.42 11.2 11.2 0 0 0 1.32-3.58c.26-1.34.4-2.92.4-4.77V19.51c0-1.85-.14-3.42-.41-4.74-.24-1.3-.68-2.49-1.31-3.54a5.7 5.7 0 0 0-2.74-2.35 11.17 11.17 0 0 0-4.44-.78c-1.78 0-3.25.26-4.45.78a5.7 5.7 0 0 0-2.74 2.35c-.64 1.1-1.09 2.3-1.32 3.54-.28 1.57-.4 3.15-.38 4.74v24.74c0 1.85.12 3.43.38 4.76.25 1.31.7 2.52 1.32 3.6a5.98 5.98 0 0 0 2.74 2.43zM12.53 40.92h11.72l-5.88-29.5-5.85 29.5z" fill="#363636" fill-rule="nonzero"/></svg>
